{
  "accessors": [
    {
      "bufferView": 2,
      "componentType": 5126,
      "count": 65533,
      "max": [
        45.904037475585938,
        46.086570739746094,
        44.684967041015625
      ],
      "min": [
        -40.977245330810547,
        -46.086570739746094,
        -45.468795776367188
      ],
      "type": "VEC3"
    },
    {
      "bufferView": 2,
      "byteOffset": 786396,
      "componentType": 5126,
      "count": 65533,
      "max": [
        0.99999594688415527,
        0.99997389316558838,
        0.99998629093170166
      ],
      "min": [
        -0.99999594688415527,
        -0.99998414516448975,
        -0.99992132186889648
      ],
      "type": "VEC3"
    },
    {
      "bufferView": 3,
      "componentType": 5126,
      "count": 65533,
      "max": [
        0.99992483854293823,
        0.99999755620956421,
        0.99987447261810303,
        1
      ],
      "min": [
        -0.99992483854293823,
        -0.99999755620956421,
        -0.9999426007270813,
        1
      ],
      "type": "VEC4"
    },
    {
      "bufferView": 1,
      "componentType": 5126,
      "count": 65533,
      "max": [
        0.99715197086334229,
        0.9926609992980957
      ],
      "min": [
        0.0028440000023692846,
        0.0028490000404417515
      ],
      "type": "VEC2"
    },
    {
      "bufferView": 0,
      "componentType": 5125,
      "count": 142608,
      "max": [
        65532
      ],
      "min": [
        0
      ],
      "type": "SCALAR"
    },
    {
      "bufferView": 2,
      "byteOffset": 1572792,
      "componentType": 5126,
      "count": 7537,
      "max": [
        29.051517486572266,
        21.231252670288086,
        35.821296691894531
      ],
      "min": [
        -45.976593017578125,
        -21.293975830078125,
        -38.801227569580078
      ],
      "type": "VEC3"
    },
    {
      "bufferView": 2,
      "byteOffset": 1663236,
      "componentType": 5126,
      "count": 7537,
      "max": [
        0.99662125110626221,
        0.99991142749786377,
        0.99976605176925659
      ],
      "min": [
        -0.99954682588577271,
        -0.9998353123664856,
        -0.99954527616500854
      ],
      "type": "VEC3"
    },
    {
      "bufferView": 3,
      "byteOffset": 1048528,
      "componentType": 5126,
      "count": 7537,
      "max": [
        0.99999183416366577,
        0.99994564056396484,
        0.99932324886322021,
        1
      ],
      "min": [
        -0.99905526638031006,
        -0.99993747472763062,
        -0.99978625774383545,
        1
      ],
      "type": "VEC4"
    },
    {
      "bufferView": 1,
      "byteOffset": 524264,
      "componentType": 5126,
      "count": 7537,
      "max": [
        0.99715197086334229,
        0.9926609992980957
      ],
      "min": [
        0.0028440000023692846,
        0.0028510000556707382
      ],
      "type": "VEC2"
    },
    {
      "bufferView": 0,
      "byteOffset": 570432,
      "componentType": 5125,
      "count": 16236,
      "max": [
        7536
      ],
      "min": [
        0
      ],
      "type": "SCALAR"
    },
    {
      "bufferView": 2,
      "byteOffset": 1753680,
      "componentType": 5126,
      "count": 9149,
      "max": [
        35.516307830810547,
        35.516273498535156,
        35.619071960449219
      ],
      "min": [
        -35.516288757324219,
        -35.516338348388672,
        -35.619071960449219
      ],
      "type": "VEC3"
    },
    {
      "bufferView": 2,
      "byteOffset": 1863468,
      "componentType": 5126,
      "count": 9149,
      "max": [
        1,
        1,
        1
      ],
      "min": [
        -1,
        -1,
        -1
      ],
      "type": "VEC3"
    },
    {
      "bufferView": 3,
      "byteOffset": 1169120,
      "componentType": 5126,
      "count": 9149,
      "max": [
        1,
        1,
        0.077322088181972504,
        1
      ],
      "min": [
        -1,
        -1,
        -0.07317478209733963,
        1
      ],
      "type": "VEC4"
    },
    {
      "bufferView": 1,
      "byteOffset": 584560,
      "componentType": 5126,
      "count": 9149,
      "max": [
        1.0000009536743164,
        1
      ],
      "min": [
        0,
        0
      ],
      "type": "VEC2"
    },
    {
      "bufferView": 0,
      "byteOffset": 635376,
      "componentType": 5125,
      "count": 53088,
      "max": [
        9148
      ],
      "min": [
        0
      ],
      "type": "SCALAR"
    }
  ],
  "asset": {
    "extras": {
      "author": "Teliri (https://sketchfab.com/Teliri)",
      "license": "CC-BY-4.0 (http://creativecommons.org/licenses/by/4.0/)",
      "source": "https://sketchfab.com/3d-models/coronavirus-b28f63adc5f04a2aab27e1d7293eba0b",
      "title": "Coronavirus"
    },
    "generator": "Sketchfab-8.7.0",
    "version": "2.0"
  },
  "bufferViews": [
    {
      "buffer": 0,
      "byteLength": 847728,
      "byteOffset": 0,
      "name": "floatBufferViews",
      "target": 34963
    },
    {
      "buffer": 0,
      "byteLength": 657752,
      "byteOffset": 847728,
      "byteStride": 8,
      "name": "floatBufferViews",
      "target": 34962
    },
    {
      "buffer": 0,
      "byteLength": 1973256,
      "byteOffset": 1505480,
      "byteStride": 12,
      "name": "floatBufferViews",
      "target": 34962
    },
    {
      "buffer": 0,
      "byteLength": 1315504,
      "byteOffset": 3478736,
      "byteStride": 16,
      "name": "floatBufferViews",
      "target": 34962
    }
  ],
  "buffers": [
    {
      "byteLength": 4794240,
      "uri": "scene.bin"
    }
  ],
  "extensionsRequired": [
    "KHR_materials_pbrSpecularGlossiness"
  ],
  "extensionsUsed": [
    "KHR_materials_pbrSpecularGlossiness"
  ],
  "images": [
    {
      "uri": "textures/Parts_diffuse.png"
    },
    {
      "uri": "textures/Parts_specularGlossiness.png"
    },
    {
      "uri": "textures/Parts_normal.png"
    },
    {
      "uri": "textures/Parts_occlusion.png"
    },
    {
      "uri": "textures/SphereLow_diffuse.png"
    },
    {
      "uri": "textures/SphereLow_specularGlossiness.png"
    },
    {
      "uri": "textures/SphereLow_normal.png"
    },
    {
      "uri": "textures/SphereLow_occlusion.png"
    }
  ],
  "materials": [
    {
      "doubleSided": true,
      "emissiveFactor": [
        0.33228556315104163,
        0.33228556315104163,
        0.33228556315104163
      ],
      "emissiveTexture": {
        "index": 0,
        "texCoord": 0
      },
      "extensions": {
        "KHR_materials_pbrSpecularGlossiness": {
          "diffuseFactor": [
            1,
            1,
            1,
            1
          ],
          "diffuseTexture": {
            "index": 0,
            "texCoord": 0
          },
          "glossinessFactor": 1,
          "specularFactor": [
            0.21561849342202241,
            0.21561849342202241,
            0.21561849342202241
          ],
          "specularGlossinessTexture": {
            "index": 1,
            "texCoord": 0
          }
        }
      },
      "name": "Parts",
      "normalTexture": {
        "index": 2,
        "scale": 1,
        "texCoord": 0
      },
      "occlusionTexture": {
        "index": 3,
        "strength": 1,
        "texCoord": 0
      }
    },
    {
      "doubleSided": true,
      "emissiveFactor": [
        0.45807172667305429,
        0.45807172667305429,
        0.45807172667305429
      ],
      "emissiveTexture": {
        "index": 4,
        "texCoord": 0
      },
      "extensions": {
        "KHR_materials_pbrSpecularGlossiness": {
          "diffuseFactor": [
            1,
            1,
            1,
            1
          ],
          "diffuseTexture": {
            "index": 4,
            "texCoord": 0
          },
          "glossinessFactor": 1,
          "specularFactor": [
            1,
            1,
            1
          ],
          "specularGlossinessTexture": {
            "index": 5,
            "texCoord": 0
          }
        }
      },
      "name": "SphereLow",
      "normalTexture": {
        "index": 6,
        "scale": 1,
        "texCoord": 0
      },
      "occlusionTexture": {
        "index": 7,
        "strength": 1,
        "texCoord": 0
      }
    }
  ],
  "meshes": [
    {
      "primitives": [
        {
          "attributes": {
            "NORMAL": 1,
            "POSITION": 0,
            "TANGENT": 2,
            "TEXCOORD_0": 3
          },
          "indices": 4,
          "material": 0,
          "mode": 4
        }
      ]
    },
    {
      "primitives": [
        {
          "attributes": {
            "NORMAL": 6,
            "POSITION": 5,
            "TANGENT": 7,
            "TEXCOORD_0": 8
          },
          "indices": 9,
          "material": 0,
          "mode": 4
        }
      ]
    },
    {
      "primitives": [
        {
          "attributes": {
            "NORMAL": 11,
            "POSITION": 10,
            "TANGENT": 12,
            "TEXCOORD_0": 13
          },
          "indices": 14,
          "material": 1,
          "mode": 4
        }
      ]
    }
  ],
  "nodes": [
    {
      "children": [
        1
      ],
      "name": "RootNode (gltf orientation matrix)",
      "rotation": [
        -0.70710678118654746,
        -0,
        -0,
        0.70710678118654757
      ]
    },
    {
      "children": [
        2
      ],
      "name": "RootNode (model correction matrix)"
    },
    {
      "children": [
        3,
        4,
        5
      ],
      "name": "VirusComplete.obj.cleaner.materialmerger.gles"
    },
    {
      "mesh": 0,
      "name": ""
    },
    {
      "mesh": 1,
      "name": ""
    },
    {
      "mesh": 2,
      "name": ""
    }
  ],
  "samplers": [
    {
      "magFilter": 9729,
      "minFilter": 9987,
      "wrapS": 10497,
      "wrapT": 10497
    }
  ],
  "scene": 0,
  "scenes": [
    {
      "name": "OSG_Scene",
      "nodes": [
        0
      ]
    }
  ],
  "textures": [
    {
      "sampler": 0,
      "source": 0
    },
    {
      "sampler": 0,
      "source": 1
    },
    {
      "sampler": 0,
      "source": 2
    },
    {
      "sampler": 0,
      "source": 3
    },
    {
      "sampler": 0,
      "source": 4
    },
    {
      "sampler": 0,
      "source": 5
    },
    {
      "sampler": 0,
      "source": 6
    },
    {
      "sampler": 0,
      "source": 7
    }
  ]
}

